<?xml version="1.0" encoding="utf-8"?>
<!-- Generator: Adobe Illustrator 27.0.0, SVG Export Plug-In . SVG Version: 6.00 Build 0)  -->
<svg version="1.1" id="Layer_1" xmlns="http://www.w3.org/2000/svg" xmlns:xlink="http://www.w3.org/1999/xlink" x="0px" y="0px"
	 viewBox="0 0 104 40" style="enable-background:new 0 0 104 40;" xml:space="preserve">
<style type="text/css">
	.st0{fill:#F40051;}
	.st1{enable-background:new    ;}
	.st2{fill:#7620FF;}
	.st3{fill:#F2B300;}
	.st4{fill:#4CD5C5;}
</style>
<g id="Group_101" transform="translate(-375 -21)">
	<path id="Rectangle_16" class="st0" d="M379,53h5c2.2,0,4,1.8,4,4l0,0c0,2.2-1.8,4-4,4h-5c-2.2,0-4-1.8-4-4l0,0
		C375,54.8,376.8,53,379,53z"/>
	<g class="st1">
		<path class="st2" d="M412.2,37.6h1.5v-0.8c0-0.9,0.1-1.5,0.3-2s0.5-0.8,1-1s1.1-0.4,1.9-0.4s1.5,0.1,2.3,0.4l-0.4,1.9
			c-0.4-0.1-0.9-0.2-1.3-0.2s-0.7,0.1-0.9,0.3s-0.3,0.5-0.3,1.1v0.7h2.1v2.2h-2.1V48h-2.7v-8.2h-1.5v-2.2H412.2z"/>
		<path class="st2" d="M422.1,40.8l-2.5-0.4c0.3-1,0.8-1.7,1.4-2.2s1.7-0.7,3-0.7c1.2,0,2.1,0.1,2.7,0.4s1,0.7,1.3,1.1
			s0.4,1.3,0.4,2.5v3.2c0,0.9,0,1.6,0.1,2s0.3,0.9,0.5,1.4h-2.7c-0.1-0.2-0.2-0.5-0.3-0.8c0-0.2-0.1-0.3-0.1-0.3
			c-0.5,0.5-1,0.8-1.5,1s-1.1,0.3-1.7,0.3c-1.1,0-1.9-0.3-2.5-0.9s-0.9-1.3-0.9-2.2c0-0.6,0.1-1.1,0.4-1.6s0.7-0.8,1.2-1.1
			s1.2-0.5,2.2-0.6c1.3-0.2,2.2-0.5,2.7-0.7V41c0-0.5-0.1-0.9-0.4-1.1s-0.8-0.3-1.5-0.3c-0.5,0-0.9,0.1-1.1,0.3
			S422.3,40.3,422.1,40.8z M425.8,43c-0.4,0.1-0.9,0.3-1.7,0.4s-1.3,0.3-1.5,0.5c-0.4,0.3-0.5,0.6-0.5,1s0.1,0.7,0.4,1
			s0.7,0.4,1.1,0.4c0.5,0,1-0.2,1.4-0.5c0.3-0.2,0.6-0.5,0.7-0.9c0.1-0.2,0.1-0.7,0.1-1.3V43z"/>
		<path class="st2" d="M440.7,48H438v-5.3c0-1.1-0.1-1.8-0.2-2.2s-0.3-0.6-0.6-0.8s-0.6-0.3-1-0.3c-0.5,0-0.9,0.1-1.3,0.4
			s-0.6,0.6-0.8,1s-0.2,1.2-0.2,2.4V48h-2.7V37.6h2.5v1.5c0.9-1.2,2-1.8,3.4-1.8c0.6,0,1.2,0.1,1.7,0.3s0.9,0.5,1.1,0.8
			s0.4,0.7,0.5,1.2s0.2,1,0.2,1.8V48H440.7z"/>
		<path class="st2" d="M445.5,40.8l-2.5-0.4c0.3-1,0.8-1.7,1.4-2.2s1.7-0.7,3-0.7c1.2,0,2.1,0.1,2.7,0.4s1,0.7,1.3,1.1
			s0.4,1.3,0.4,2.5v3.2c0,0.9,0,1.6,0.1,2s0.3,0.9,0.5,1.4h-2.7c-0.1-0.2-0.2-0.5-0.3-0.8c0-0.2-0.1-0.3-0.1-0.3
			c-0.5,0.5-1,0.8-1.5,1s-1.1,0.3-1.7,0.3c-1.1,0-1.9-0.3-2.5-0.9s-0.9-1.3-0.9-2.2c0-0.6,0.1-1.1,0.4-1.6s0.7-0.8,1.2-1.1
			s1.2-0.5,2.2-0.6c1.3-0.2,2.2-0.5,2.7-0.7V41c0-0.5-0.1-0.9-0.4-1.1s-0.8-0.3-1.5-0.3c-0.5,0-0.9,0.1-1.1,0.3
			S445.7,40.3,445.5,40.8z M449.2,43c-0.4,0.1-0.9,0.3-1.7,0.4s-1.3,0.3-1.5,0.5c-0.4,0.3-0.5,0.6-0.5,1s0.1,0.7,0.4,1
			s0.7,0.4,1.1,0.4c0.5,0,1-0.2,1.4-0.5c0.3-0.2,0.6-0.5,0.7-0.9c0.1-0.2,0.1-0.7,0.1-1.3V43z"/>
		<path class="st2" d="M459.3,37.6v2.2h-1.9V44c0,0.8,0,1.3,0.1,1.5s0.1,0.3,0.2,0.3s0.3,0.1,0.5,0.1c0.3,0,0.6-0.1,1.1-0.3l0.2,2.1
			c-0.6,0.3-1.4,0.4-2.2,0.4c-0.5,0-0.9-0.1-1.3-0.2s-0.7-0.4-0.9-0.6s-0.3-0.6-0.4-1.1c-0.1-0.3-0.1-1-0.1-1.9v-4.5h-1.3v-2.2h1.3
			v-2.1l2.8-1.6v3.7C457.4,37.6,459.3,37.6,459.3,37.6z"/>
		<path class="st2" d="M461.2,36.2v-2.5h2.7v2.5H461.2z M461.2,48V37.6h2.7V48H461.2z"/>
		<path class="st2" d="M475.8,40.7l-2.7,0.5c-0.1-0.5-0.3-0.9-0.6-1.2s-0.7-0.4-1.3-0.4c-0.7,0-1.2,0.2-1.6,0.7s-0.6,1.3-0.6,2.4
			c0,1.2,0.2,2.1,0.6,2.6s1,0.8,1.7,0.8c0.5,0,0.9-0.1,1.3-0.4s0.6-0.8,0.7-1.5l2.7,0.5c-0.3,1.2-0.8,2.2-1.6,2.8s-1.9,0.9-3.2,0.9
			c-1.5,0-2.7-0.5-3.6-1.4s-1.4-2.3-1.4-4s0.5-3,1.4-4s2.1-1.4,3.7-1.4c1.3,0,2.3,0.3,3,0.8S475.5,39.6,475.8,40.7z"/>
	</g>
	<path id="Rectangle_11" class="st3" d="M386,21h12c2.2,0,4,1.8,4,4l0,0c0,2.2-1.8,4-4,4h-12c-2.2,0-4-1.8-4-4l0,0
		C382,22.8,383.8,21,386,21z"/>
	<path id="Rectangle_15" class="st2" d="M386,37h12c2.2,0,4,1.8,4,4l0,0c0,2.2-1.8,4-4,4h-12c-2.2,0-4-1.8-4-4l0,0
		C382,38.8,383.8,37,386,37z"/>
	<path id="Rectangle_12" class="st4" d="M379,29L379,29c2.2,0,4,1.8,4,4l0,0c0,2.2-1.8,4-4,4l0,0c-2.2,0-4-1.8-4-4l0,0
		C375,30.8,376.8,29,379,29z"/>
</g>
</svg>
